<svg width="35" height="25" viewBox="0 0 35 25" fill="none" xmlns="http://www.w3.org/2000/svg">
<path d="M28.3634 14.0595C26.8764 16.1295 25.4081 18.1621 23.921 20.2228C24.0426 20.3165 24.1455 20.3914 24.2484 20.457C25.7915 21.506 27.3347 22.5645 28.8778 23.6136C29.1023 23.7634 29.4202 23.8946 29.2145 24.2692C29.0836 24.5128 28.8684 24.494 28.4663 24.213C26.7642 23.0516 25.0714 21.8901 23.3693 20.7286C22.9671 20.4476 22.939 20.3258 23.2196 19.9418C23.3599 19.7451 23.5002 19.539 23.6498 19.3423C23.6592 19.333 23.6592 19.3236 23.6592 19.2955C22.3592 18.3213 21.0125 17.6469 19.301 18.2464C17.8233 18.7616 16.3082 19.155 14.8118 19.6046C13.2219 20.0823 11.7255 19.8856 10.2946 19.052C7.5918 17.4596 4.87961 15.8673 2.16742 14.2749C1.77462 14.0407 1.38182 13.8159 0.989021 13.5818C0.109898 13.0479 -0.226787 12.0925 0.15666 11.2026C0.540107 10.3034 1.43794 9.87255 2.43864 10.1254C2.88755 10.2378 3.34582 10.3596 3.79473 10.4814C3.88826 10.5095 3.99113 10.5282 4.14077 10.5563C4.14077 10.369 4.14077 10.2191 4.14077 10.0692C4.14077 6.93139 4.14077 3.79353 4.14077 0.655672C4.14077 0.0468337 4.19689 0 4.80479 0C9.64932 0 14.5032 0 19.3571 0C19.9463 0 20.0117 0.0655672 20.0117 0.674405C20.0117 3.64366 20.0117 6.62229 20.0117 9.59154C20.0117 9.73205 20.0117 9.87255 20.0117 10.0411C20.3391 10.0786 20.6477 10.0973 20.9563 10.1535C21.8822 10.3034 22.7239 10.65 23.5095 11.1652C24.7628 11.9801 26.016 12.795 27.2785 13.6005C27.3814 13.6661 27.4936 13.7316 27.6339 13.8253C27.7275 13.7035 27.8116 13.6005 27.8864 13.4881C28.139 13.1509 28.2512 13.1228 28.6159 13.3476C29.9159 14.1625 31.2065 14.9681 32.5065 15.783C32.918 16.0452 33.3389 16.3075 33.7504 16.5698C33.9748 16.7103 34.1338 16.8882 33.9655 17.1411C33.7971 17.4034 33.5727 17.3191 33.3576 17.1786C31.7957 16.1951 30.2339 15.221 28.6627 14.2374C28.5692 14.1812 28.485 14.125 28.3634 14.0595ZM14.2133 0.739973C14.2133 1.65791 14.2039 2.54775 14.2133 3.43759C14.2133 3.76543 14.073 3.9153 13.755 3.9153C12.6327 3.9153 11.5104 3.9153 10.3882 3.9153C10.0795 3.9153 9.91119 3.7748 9.92054 3.44696C9.92989 2.91306 9.92054 2.36979 9.92054 1.83588C9.92054 1.47995 9.92054 1.11464 9.92054 0.758706C8.20905 0.758706 6.55368 0.758706 4.88896 0.758706C4.88896 0.80554 4.87026 0.843007 4.87026 0.871107C4.87026 4.09327 4.87026 7.30606 4.8609 10.5282C4.8609 10.7437 4.95443 10.7999 5.14148 10.8467C6.92778 11.315 8.70473 11.7834 10.491 12.2611C10.6968 12.3173 10.809 12.2704 10.9399 12.1112C11.4543 11.493 12.109 11.0996 12.8946 10.9685C13.7737 10.8186 14.6528 10.7249 15.532 10.6032C16.7665 10.4346 18.001 10.2659 19.2542 10.088C19.2542 6.95949 19.2542 3.8591 19.2542 0.730606C17.5801 0.739973 15.9248 0.739973 14.2133 0.739973ZM10.3601 12.9636C9.28458 12.6826 8.22776 12.4016 7.17094 12.1206C5.56233 11.6991 3.94437 11.2682 2.33576 10.8373C1.6998 10.6687 1.22283 10.828 0.923555 11.3057C0.540108 11.9051 0.74586 12.5889 1.42858 12.9917C4.52422 14.8088 7.6105 16.626 10.7061 18.4431C11.9313 19.1644 13.2219 19.3236 14.5874 18.9208C16.1492 18.4525 17.7204 18.0029 19.2823 17.5158C20.6197 17.0943 21.8635 17.2535 23.0326 18.0122C23.388 18.2464 23.7621 18.4618 24.1361 18.6866C25.1743 17.2442 26.1843 15.8392 27.2318 14.3873C25.6045 13.357 24.0239 12.3173 22.3966 11.3525C21.4146 10.7718 20.2923 10.6781 19.1607 10.828C17.3089 11.0715 15.4571 11.3525 13.6054 11.5773C12.6514 11.6897 11.8378 11.9988 11.286 12.8231C11.1176 13.076 10.968 13.3289 11.1457 13.638C11.3047 13.9283 11.5853 13.9471 11.8752 13.9471C13.7176 13.9471 15.5694 13.9471 17.4118 13.9471C17.524 13.9471 17.6643 13.9096 17.7578 13.9658C17.8794 14.0407 18.0384 14.1719 18.0478 14.2936C18.0478 14.4154 17.8981 14.5465 17.7859 14.6496C17.7391 14.6964 17.6269 14.6683 17.5521 14.6683C15.6161 14.6683 13.6708 14.6683 11.7349 14.6683C11.604 14.6683 11.473 14.659 11.3515 14.6309C10.6313 14.4622 10.3133 13.9283 10.3601 12.9636ZM10.6594 3.14723C11.6133 3.14723 12.5486 3.14723 13.4744 3.14723C13.4744 2.33232 13.4744 1.53615 13.4744 0.749339C12.5205 0.749339 11.604 0.749339 10.6594 0.749339C10.6594 1.55488 10.6594 2.34169 10.6594 3.14723Z" fill="black"/>
</svg>
